HIERARCHY
ROOT SpineBase
{
  OFFSET 0.000000 0.000000 0.000000
  CHANNELS 6 Xposition Yposition Zposition Zrotation Xrotation Yrotation
  JOINT SpineMid
  {
    OFFSET 0.000000 23.609052 -0.000000
    CHANNELS 3 Zrotation Xrotation Yrotation
    JOINT SpineShoulder
    {
      OFFSET 0.007007 17.551016 -0.605460
      CHANNELS 3 Zrotation Xrotation Yrotation
      JOINT Neck
      {
        OFFSET 0.035969 5.806928 -0.418077
        CHANNELS 3 Zrotation Xrotation Yrotation
        JOINT Head
        {
          OFFSET 3.123636 10.495136 2.828748
          CHANNELS 3 Zrotation Xrotation Yrotation
          End Site
          {
            OFFSET 0 0 0
          }
        }
      }
      JOINT ShoulderLeft
      {
        OFFSET -5.798271 -3.872235 -10.593261
        CHANNELS 3 Zrotation Xrotation Yrotation
        JOINT ElbowLeft
        {
          OFFSET -0.859727 -20.662699 -3.750075
          CHANNELS 3 Zrotation Xrotation Yrotation
          JOINT WristLeft
          {
            OFFSET 2.172195 -21.801520 -0.877073
            CHANNELS 3 Zrotation Xrotation Yrotation
            JOINT HandLeft
            {
              OFFSET 0.393327 -6.456226 0.068732
              CHANNELS 3 Zrotation Xrotation Yrotation
              JOINT HandTipLeft
              {
                OFFSET 1.019914 -5.705100 -0.750790
                CHANNELS 3 Zrotation Xrotation Yrotation
                End Site
                {
                  OFFSET 0 0 0
                }
              }
              JOINT ThumbLeft
              {
                OFFSET 0.356403 0.540607 0.472051
                CHANNELS 3 Zrotation Xrotation Yrotation
                End Site
                {
                  OFFSET 0 0 0
                }
              }
            }
          }
        }
      }
      JOINT ShoulderRight
      {
        OFFSET 6.280502 -4.117521 11.354033
        CHANNELS 3 Zrotation Xrotation Yrotation
        JOINT ElbowRight
        {
          OFFSET 4.049285 -26.273346 4.373992
          CHANNELS 3 Zrotation Xrotation Yrotation
          JOINT WristRight
          {
            OFFSET -0.729250 -25.962872 0.617082
            CHANNELS 3 Zrotation Xrotation Yrotation
            JOINT HandRight
            {
              OFFSET -1.375512 -6.700361 0.252424
              CHANNELS 3 Zrotation Xrotation Yrotation
              JOINT HandTipRight
              {
                OFFSET 0.191765 -3.257408 -1.108463
                CHANNELS 3 Zrotation Xrotation Yrotation
                End Site
                {
                  OFFSET 0 0 0
                }
              }
              JOINT ThumbRight
              {
                OFFSET 0.191344 0.126750 -1.866463
                CHANNELS 3 Zrotation Xrotation Yrotation
                End Site
                {
                  OFFSET 0 0 0
                }
              }
            }
          }
        }
      }
    }
  }
  JOINT HipLeft
  {
    OFFSET -2.007110 1.073742 -7.493116
    CHANNELS 3 Zrotation Xrotation Yrotation
    JOINT KneeLeft
    {
      OFFSET -9.138140 -40.906207 8.386233
      CHANNELS 3 Zrotation Xrotation Yrotation
      JOINT AnkleLeft
      {
        OFFSET -5.083913 -36.896960 7.791485
        CHANNELS 3 Zrotation Xrotation Yrotation
        JOINT FootLeft
        {
          OFFSET 5.927191 -4.185039 -4.438137
          CHANNELS 3 Zrotation Xrotation Yrotation
          End Site
          {
            OFFSET 0 0 0
          }
        }
      }
    }
  }
  JOINT HipRight
  {
    OFFSET 2.708488 -0.366779 2.100603
    CHANNELS 3 Zrotation Xrotation Yrotation
    JOINT KneeRight
    {
      OFFSET -8.026625 -41.179815 8.276098
      CHANNELS 3 Zrotation Xrotation Yrotation
      JOINT AnkleRight
      {
        OFFSET -6.589756 -32.476354 4.792387
        CHANNELS 3 Zrotation Xrotation Yrotation
        JOINT FootRight
        {
          OFFSET 7.402205 -3.414812 -5.488847
          CHANNELS 3 Zrotation Xrotation Yrotation
          End Site
          {
            OFFSET 0 0 0
          }
        }
      }
    }
  }
}
MOTION
Frames: 6
Frame Time: 0.033333
-43.422943 85.782332 349.737106 -0.000000 -0.000000 -63.824514 -0.000000 0.000000 63.824514 -0.000000 0.000000 0.000000 -0.000000 0.000000 0.000000 0.000000 0.000000 0.000000 -0.000000 0.000000 0.000000 -0.000000 0.000000 0.000000 -0.000000 0.000000 0.000000 -0.000000 0.000000 0.000000 0.000000 0.000000 0.000000 0.000000 0.000000 0.000000 -0.000000 0.000000 0.000000 -0.000000 0.000000 0.000000 -0.000000 0.000000 0.000000 -0.000000 0.000000 0.000000 0.000000 0.000000 0.000000 0.000000 0.000000 0.000000 -0.000000 0.000000 63.824514 -0.000000 0.000000 0.000000 -0.000000 0.000000 0.000000 0.000000 0.000000 0.000000 -0.000000 0.000000 63.824514 -0.000000 0.000000 0.000000 -0.000000 0.000000 0.000000 0.000000 0.000000 0.000000
-43.409430 85.761680 349.669685 -0.013738 0.089226 -63.591590 0.086025 -0.027380 63.591622 -0.000000 0.000000 0.000000 -0.000000 0.000000 0.000000 0.000000 0.000000 0.000000 -0.000000 0.000000 0.000000 -0.000000 0.000000 0.000000 -0.000000 0.000000 0.000000 -1.474448 2.103696 0.597171 0.000000 0.000000 0.000000 0.000000 0.000000 0.000000 -0.000000 0.000000 0.000000 -0.000000 0.000000 0.000000 0.656276 -3.361802 0.734365 -3.039401 7.673304 0.613103 0.000000 0.000000 0.000000 0.000000 0.000000 0.000000 0.086025 -0.027380 63.591622 -0.000000 0.000000 0.000000 -3.226845 -3.485021 -1.737853 0.000000 0.000000 0.000000 0.086025 -0.027380 63.591622 -0.000000 0.000000 0.000000 -0.218922 1.158155 2.829853 0.000000 0.000000 0.000000
-43.398950 85.744345 349.606396 -0.027365 0.168388 -63.397719 0.162815 -0.050935 63.397832 -0.000000 0.000000 0.000000 -0.000000 0.000000 0.000000 0.000000 0.000000 0.000000 -0.000000 0.000000 0.000000 -0.000000 0.000000 0.000000 -0.698515 -0.834508 -0.063383 -1.816244 4.456910 1.147383 0.000000 0.000000 0.000000 0.000000 0.000000 0.000000 -0.000000 0.000000 0.000000 -0.000000 0.000000 0.000000 1.261201 -6.248515 1.400598 -5.182514 12.962733 1.173894 0.000000 0.000000 0.000000 0.000000 0.000000 0.000000 0.162815 -0.050935 63.397832 -0.000000 0.000000 0.000000 -5.739986 -6.055380 -3.201970 0.000000 0.000000 0.000000 1.190924 0.145459 63.686738 -1.588102 1.571078 -0.554993 0.020389 0.793001 5.084940 0.000000 0.000000 0.000000
-43.391503 85.730326 349.547239 -0.040879 0.237469 -63.243436 0.230447 -0.070406 63.243663 -0.000000 0.000000 0.000000 0.303283 -0.784237 0.154151 0.000000 0.000000 0.000000 -0.000000 0.000000 0.000000 -0.000000 0.000000 0.000000 -0.960518 -1.286506 -0.099429 -2.143277 5.858600 1.496000 0.000000 0.000000 0.000000 0.000000 0.000000 0.000000 -0.000000 0.000000 0.000000 -0.000000 0.000000 0.000000 1.761102 -8.486514 1.942921 -6.702997 16.295555 1.619916 0.000000 0.000000 0.000000 0.000000 0.000000 0.000000 0.230447 -0.070406 63.243663 -0.000000 0.000000 0.000000 -7.142270 -7.444039 -4.079453 0.000000 0.000000 0.000000 1.404673 0.156219 63.574051 -1.849615 1.608466 -0.598394 -1.013826 0.502166 6.394559 0.000000 0.000000 0.000000
-43.387090 85.719623 349.492213 -0.054281 0.296454 -63.129225 0.288980 -0.085570 63.129581 -0.000000 0.000000 0.000000 0.379095 -0.938637 0.180875 0.000000 0.000000 0.000000 -0.000000 0.000000 0.000000 -0.000000 0.000000 0.000000 -1.166187 -1.764362 -0.137933 -2.068736 6.729165 1.652642 0.000000 0.000000 0.000000 0.000000 0.000000 0.000000 -0.000000 0.000000 0.000000 -0.000000 0.000000 0.000000 2.102520 -9.929381 2.306220 -7.721642 17.806612 1.919220 0.000000 0.000000 0.000000 0.000000 0.000000 0.000000 0.288980 -0.085570 63.129581 -0.000000 0.000000 0.000000 -7.192827 -7.524979 -4.168896 0.000000 0.000000 0.000000 1.362904 0.128241 63.432850 -1.759478 1.149681 -0.496532 -2.842313 -0.285502 7.033253 0.000000 0.000000 0.000000
-43.385711 85.712236 349.441320 -0.067571 0.345326 -63.055515 0.338458 -0.096240 63.056003 -0.000000 0.000000 0.000000 0.441332 -1.037694 0.194596 0.000000 0.000000 0.000000 -0.000000 0.000000 0.000000 -0.000000 0.000000 0.000000 -1.316257 -2.270401 -0.178520 -1.586894 7.076697 1.600483 0.000000 0.000000 0.000000 0.000000 0.000000 0.000000 -0.000000 0.000000 0.000000 -0.000000 0.000000 0.000000 2.241855 -10.466879 2.445585 -8.287574 17.480431 2.045821 0.000000 0.000000 0.000000 0.000000 0.000000 0.000000 0.338458 -0.096240 63.056003 -0.000000 0.000000 0.000000 -5.878859 -6.292682 -3.456721 0.000000 0.000000 0.000000 0.338458 -0.096240 63.056003 -0.849361 -0.373514 -0.052214 -5.713022 -1.764319 6.965350 0.000000 0.000000 0.000000
